name D:\school\WTK\thesis\model\3dpredictsim\Results\batch_windlass\Pog_s1_tmt_bCst_d05_k1000_WL20_ig24_act_TTC.mot
datacolumns 128
datarows 4
range 1.24392071 1.28123834
endheader
time	pelvis_tilt	pelvis_list	pelvis_rotation	pelvis_tx	pelvis_ty	pelvis_tz	hip_flexion_l	hip_adduction_l	hip_rotation_l	hip_flexion_r	hip_adduction_r	hip_rotation_r	knee_angle_l	knee_angle_r	ankle_angle_l	ankle_angle_r	subtalar_angle_l	subtalar_angle_r	tmt_angle_l	tmt_angle_r	mtp_angle_l	mtp_angle_r	lumbar_extension	lumbar_bending	lumbar_rotation	arm_flex_l	arm_add_l	arm_rot_l	arm_flex_r	arm_add_r	arm_rot_r	elbow_flex_l	elbow_flex_r	pro_sup_l	pro_sup_r	glut_med1_l/activation	glut_med2_l/activation	glut_med3_l/activation	glut_min1_l/activation	glut_min2_l/activation	glut_min3_l/activation	semimem_l/activation	semiten_l/activation	bifemlh_l/activation	bifemsh_l/activation	sar_l/activation	add_long_l/activation	add_brev_l/activation	add_mag1_l/activation	add_mag2_l/activation	add_mag3_l/activation	tfl_l/activation	pect_l/activation	grac_l/activation	glut_max1_l/activation	glut_max2_l/activation	glut_max3_l/activation	iliacus_l/activation	psoas_l/activation	quad_fem_l/activation	gem_l/activation	peri_l/activation	rect_fem_l/activation	vas_med_l/activation	vas_int_l/activation	vas_lat_l/activation	med_gas_l/activation	lat_gas_l/activation	soleus_l/activation	tib_post_l/activation	flex_dig_l/activation	flex_hal_l/activation	tib_ant_l/activation	per_brev_l/activation	per_long_l/activation	per_tert_l/activation	ext_dig_l/activation	ext_hal_l/activation	ercspn_l/activation	intobl_l/activation	extobl_l/activation	glut_med1_r/activation	glut_med2_r/activation	glut_med3_r/activation	glut_min1_r/activation	glut_min2_r/activation	glut_min3_r/activation	semimem_r/activation	semiten_r/activation	bifemlh_r/activation	bifemsh_r/activation	sar_r/activation	add_long_r/activation	add_brev_r/activation	add_mag1_r/activation	add_mag2_r/activation	add_mag3_r/activation	tfl_r/activation	pect_r/activation	grac_r/activation	glut_max1_r/activation	glut_max2_r/activation	glut_max3_r/activation	iliacus_r/activation	psoas_r/activation	quad_fem_r/activation	gem_r/activation	peri_r/activation	rect_fem_r/activation	vas_med_r/activation	vas_int_r/activation	vas_lat_r/activation	med_gas_r/activation	lat_gas_r/activation	soleus_r/activation	tib_post_r/activation	flex_dig_r/activation	flex_hal_r/activation	tib_ant_r/activation	per_brev_r/activation	per_long_r/activation	per_tert_r/activation	ext_dig_r/activation	ext_hal_r/activation	ercspn_r/activation	intobl_r/activation	extobl_r/activation	
          1.24392071	         -2.92975432	         -0.60731407	         10.15061935	          1.55490089	          0.85649340	         -0.00292580	        -15.39236704	         -3.24836983	          5.79019841	         33.19451953	         -1.65262260	         -3.72987825	        -18.38370551	        -19.49619857	        -13.28695746	          1.56540720	         17.76755297	          6.78615497	         -8.10701650	         -0.13303710	         38.69220980	          0.65598587	          0.34057524	         -2.50162671	         -2.96017858	          2.36558691	        -13.53195801	         15.30278194	        -12.36798668	        -13.69203348	         14.05305180	         45.38374361	         17.38301627	         86.51662706	         86.51662706	          0.12262847	          0.08571987	          0.06466429	          0.19232911	          0.12938976	          0.08812220	          0.05000158	          0.05000018	          0.05000018	          0.05000023	          0.10623348	          0.09106812	          0.05000426	          0.05000107	          0.05000123	          0.05000078	          0.18698600	          0.05308829	          0.05000060	          0.05000172	          0.05000127	          0.05000091	          0.34956661	          0.36760101	          0.05000015	          0.05000057	          0.07405416	          0.20220876	          0.11501238	          0.11517473	          0.10456298	          0.12920080	          0.19947694	          0.05000000	          0.14309278	          0.16251855	          0.16567545	          0.13376714	          0.50082986	          0.38233950	          0.48067013	          0.42624603	          0.18525765	          0.05000001	          0.05000157	          0.06051435	          0.05000171	          0.05000181	          0.06035870	          0.05000225	          0.05000186	          0.05000157	          0.07288108	          0.07288064	          0.08223096	          0.06036628	          0.05478294	          0.06875881	          0.07531246	          0.13791050	          0.05867897	          0.08850720	          0.05000128	          0.05000474	          0.07288466	          0.05002264	          0.05516255	          0.09235711	          0.07536288	          0.07205198	          0.17021103	          0.05013365	          0.07541769	          0.05000014	          0.06410890	          0.09542690	          0.07983006	          0.08455851	          0.07288129	          0.06828325	          0.06036601	          0.06208924	          0.06067093	          0.48042106	          0.26284332	          0.17742281	          0.13153093	          0.49175734	          0.12979533	          0.05000001	          0.15311030	          0.12318814	
          1.25635992	         -2.92895847	         -0.55453427	         10.35119438	          1.57517015	          0.85484700	         -0.00258121	        -15.74277523	         -3.59283761	          5.50772468	         32.68817707	         -1.43261537	         -3.54096592	        -19.18895836	        -19.39709722	        -16.60939324	          1.04772723	         18.06077872	          6.29437424	         -8.49271928	         -0.15948005	         39.56850299	          0.78717183	          0.57324315	         -2.31025938	         -3.07362692	          1.95516215	        -13.60865465	         15.69013948	        -13.92781842	        -13.68992346	         14.23892754	         46.53498086	         17.43528231	         86.51662706	         86.51662706	          0.10157085	          0.07100020	          0.05356027	          0.15930259	          0.10717111	          0.07298999	          0.05000299	          0.05000267	          0.05000106	          0.06036612	          0.08799130	          0.14671940	          0.21014749	          0.11833259	          0.05000541	          0.05000047	          0.15487693	          0.09982992	          0.07288125	          0.05000167	          0.05000096	          0.05000062	          0.28953931	          0.30447685	          0.07209327	          0.05001168	          0.06133784	          0.16748562	          0.09526259	          0.09539706	          0.08660754	          0.10701453	          0.16522292	          0.05000001	          0.11852100	          0.13461101	          0.13722580	          0.33189536	          0.49848547	          0.36426886	          0.71610146	          0.56792377	          0.15344540	          0.05000002	          0.05000111	          0.07288213	          0.08703647	          0.05000049	          0.05000011	          0.05000171	          0.05000115	          0.05000072	          0.06036605	          0.06036568	          0.06811036	          0.05000026	          0.05000038	          0.08239614	          0.08799066	          0.11507855	          0.15159884	          0.12923947	          0.05000016	          0.05016098	          0.06036913	          0.05000145	          0.06036658	          0.15617670	          0.06242168	          0.05967932	          0.20256346	          0.05000551	          0.16230186	          0.06230548	          0.21162832	          0.21095481	          0.18377457	          0.07003819	          0.06036618	          0.05655771	          0.05000001	          0.05142741	          0.05025263	          0.64305505	          0.27070903	          0.14695599	          0.52524004	          0.63259354	          0.34611783	          0.05000001	          0.12681832	          0.10203437	
          1.26879913	         -2.92102682	         -0.51084497	         10.50555105	          1.59559656	          0.85267148	         -0.00223500	        -15.90624190	         -3.91316137	          5.22902583	         32.07073377	         -1.16924155	         -3.29317148	        -20.44679883	        -20.04785908	        -19.40560788	          0.49750382	         18.28826302	          5.75952328	         -8.44192306	         -0.22532255	         38.63973030	          0.99364429	          0.80661216	         -2.08856288	         -3.17021684	          1.49538749	        -13.70949832	         16.03104538	        -15.45478192	        -13.70051640	         14.51073234	         47.67801851	         17.44154020	         86.51662706	         86.51662706	          0.08412926	          0.06036586	          0.06036602	          0.13194738	          0.08876784	          0.06045628	          0.05000165	          0.05000040	          0.05000092	          0.05000021	          0.07288160	          0.12152497	          0.23077754	          0.10291250	          0.06037237	          0.10153924	          0.12828160	          0.08268766	          0.06036639	          0.05007701	          0.05279714	          0.06036595	          0.23981985	          0.25219233	          0.06036622	          0.06036600	          0.05080505	          0.13872512	          0.10623074	          0.10052880	          0.08361018	          0.08863808	          0.13685097	          0.05000003	          0.09816866	          0.11149573	          0.11366150	          0.28112340	          0.41288654	          0.31135274	          0.77852155	          0.76379978	          0.42668226	          0.07412587	          0.06036598	          0.06036688	          0.22212433	          0.05000069	          0.38902720	          0.05000036	          0.05000030	          0.05000044	          0.05000009	          0.05000006	          0.05641452	          0.05000004	          0.05000026	          0.06824733	          0.07288107	          0.09531746	          0.12556651	          0.11909451	          0.05000046	          0.06036760	          0.05000614	          0.05000031	          0.05000088	          0.14053026	          0.06036604	          0.05507121	          0.16777956	          0.05000031	          0.36851862	          0.06449686	          0.33566207	          0.32150784	          0.28161586	          0.05801131	          0.05000019	          0.05000001	          0.05000002	          0.05000008	          0.05000008	          0.63111161	          0.22422310	          0.12172083	          0.51177520	          0.52409145	          0.28668280	          0.05000001	          0.10504118	          0.08451311	
          1.28123834	         -2.90872166	         -0.47870302	         10.61408565	          1.61598731	          0.85027835	         -0.00188510	        -15.90938769	         -4.22671924	          4.95927009	         31.27904946	         -0.87605029	         -3.00058698	        -22.06240358	        -21.05885939	        -21.69227886	          0.40284111	         18.43488036	          5.18497876	         -7.95392741	         -0.61309551	         35.81830502	          1.02368913	          1.03283388	         -1.84222163	         -3.24943020	          1.02740114	        -13.81391465	         16.33254147	        -16.89428412	        -13.71202581	         14.87530329	         48.73963115	         17.35802123	         86.51662706	         86.51662706	          0.29291679	          0.05000011	          0.05000006	          0.17156913	          0.07352477	          0.05007484	          0.05000163	          0.05000006	          0.05000007	          0.05000007	          0.06036654	          0.10065684	          0.19174515	          0.08524068	          0.05000594	          0.08410371	          0.10625320	          0.06848897	          0.05000047	          0.05000086	          0.05000055	          0.05000038	          0.19863817	          0.20888606	          0.05000020	          0.05000032	          0.05000008	          0.11490335	          0.08799066	          0.08799061	          0.08220781	          0.07341722	          0.11335103	          0.05000006	          0.08131122	          0.09234980	          0.09414365	          0.28397391	          0.38402491	          0.29548891	          0.70484636	          0.87087806	          0.35341272	          0.12795863	          0.05000000	          0.05000074	          0.28930017	          0.37218017	          0.59595644	          0.22369785	          0.33614727	          0.46979771	          0.05000044	          0.05000125	          0.05000213	          0.06036602	          0.06036554	          0.05652798	          0.06036601	          0.07894966	          0.10400437	          0.09864389	          0.05000011	          0.05000157	          0.05000047	          0.26402204	          0.19072092	          0.11835467	          0.05000011	          0.05000007	          0.13897087	          0.15485079	          0.32896587	          0.05342152	          0.37152687	          0.36861133	          0.32602788	          0.05000000	          0.05000002	          0.05000000	          0.13486231	          0.05000452	          0.05000087	          0.76609950	          0.18571968	          0.10081903	          0.42389369	          0.58929083	          0.44601778	          0.05539026	          0.08700359	          0.07000058	
